<svg xmlns="http://www.w3.org/2000/svg" viewBox="0 0 48 48">
  <rect width="48" height="48" rx="12" fill="#0D0D12"/>
  <path d="M12.5 18.5c-2.5-.6-4.5-2.7-4.5-5.4 0-3.1 2.5-5.6 5.6-5.6 1.1 0 2.2.3 3 .9a6.4 6.4 0 0 1 12.3 0 5.5 5.5 0 0 1 8.7 4.5c0 2.8-2 5.1-4.6 5.6" fill="#9B7FFF"/>
  <path d="M14.5 18h19l-3 23h-13l-3-23Z" fill="#7C5CFC"/>
  <path d="M18.5 21.5 20 38M24 21.5V38M29.5 21.5 28 38" stroke="#D8CEFF" stroke-width="2" stroke-linecap="round"/>
  <path d="M14.5 18h19l-.7 5H15.2l-.7-5Z" fill="#D8CEFF"/>
  <path d="M18 14.8c.9-1.3 2.1-2 3.6-2M27.5 14.5c.8-.9 1.8-1.3 3-1.3" stroke="#D8CEFF" stroke-width="2" stroke-linecap="round"/>
</svg>
